<svg xmlns="http://www.w3.org/2000/svg" width="1200" height="630" viewBox="0 0 1200 630" role="img" aria-labelledby="title desc">
  <title id="title">NULLVAULT Cyber Claw network workspace</title>
  <desc id="desc">A clean network packet analysis workspace preview.</desc>
  <rect width="1200" height="630" fill="#f4f6f8"/>
  <path d="M0 86h1200" stroke="#c7d2e2" stroke-width="2"/>
  <rect x="76" y="56" width="24" height="24" rx="4" fill="#3f7edb"/>
  <text x="116" y="77" font-family="Segoe UI, Arial, sans-serif" font-size="24" font-weight="800" fill="#153b78">NULLVAULT</text>
  <text x="76" y="180" font-family="Segoe UI, Arial, sans-serif" font-size="68" font-weight="800" fill="#171717">Local Network Capture Workspace</text>
  <text x="78" y="238" font-family="Segoe UI, Arial, sans-serif" font-size="28" fill="#435268">Cyber Claw security review for Wi-Fi audits, packet summaries, and network findings.</text>
  <rect x="78" y="304" width="1044" height="214" rx="8" fill="#ffffff" stroke="#bac6d6"/>
  <rect x="78" y="304" width="1044" height="42" rx="8" fill="#e9edf3"/>
  <path d="M78 346h1044M78 390h1044M78 434h1044M78 478h1044" stroke="#d5dce6"/>
  <path d="M214 346v172M414 346v172M644 346v172M818 346v172" stroke="#d5dce6"/>
  <text x="98" y="332" font-family="Consolas, monospace" font-size="18" fill="#171717">No.</text>
  <text x="234" y="332" font-family="Consolas, monospace" font-size="18" fill="#171717">Source</text>
  <text x="434" y="332" font-family="Consolas, monospace" font-size="18" fill="#171717">Destination</text>
  <text x="664" y="332" font-family="Consolas, monospace" font-size="18" fill="#171717">Protocol</text>
  <text x="838" y="332" font-family="Consolas, monospace" font-size="18" fill="#171717">Finding</text>
  <circle cx="98" cy="564" r="8" fill="#52a84c"/>
  <text x="118" y="571" font-family="Segoe UI, Arial, sans-serif" font-size="20" fill="#2f3a47">Trusted local mode required for live host capture APIs</text>
</svg>
